<?xml version="1.0" encoding="utf-8"?>
<!-- Generator: Adobe Illustrator 27.0.0, SVG Export Plug-In . SVG Version: 6.00 Build 0)  -->
<svg version="1.1" id="Layer_1" xmlns="http://www.w3.org/2000/svg" xmlns:xlink="http://www.w3.org/1999/xlink" x="0px" y="0px"
	 viewBox="0 0 380.7 328.6" style="enable-background:new 0 0 380.7 328.6;" xml:space="preserve">
<style type="text/css">
	.st0{fill:#00AEEF;}
	.st1{fill:#008CCF;}
</style>
<g>
	<path class="st0" d="M125,13.4c-69,0-125,56-125,125s56,125,125,125c69,0,125-56,125-125S194,13.4,125,13.4z M125,175.9
		c-20.7,0-37.5-16.8-37.5-37.5c0-20.8,16.8-37.5,37.5-37.5s37.5,16.7,37.5,37.5C162.5,159.2,145.7,175.9,125,175.9z"/>
	<path class="st1" d="M265.5,107.2c31.8,9.1,69.3,0,69.3,0c-10.9,47.5-45.4,77.2-95.1,80.9c-19.1,44.4-63.3,75.4-114.6,75.4
		l37.5-119.2C201,21.7,220.8,13.4,312.2,13.4l62.8,0C364.5,59.7,328.3,95,265.5,107.2z"/>
</g>
</svg>
